<svg xmlns="http://www.w3.org/2000/svg" viewBox="0 0 480 260">
  <!-- Sol -->
  <ellipse cx="240" cy="232" rx="190" ry="18" fill="#4338CA" opacity="0.10"/>

  <!-- Tablette de lecture (effet 2.5D) -->
  <polygon points="56,86 232,86 260,70 84,70" fill="#6D5FE0"/>
  <polygon points="232,86 260,70 260,214 232,230" fill="#332E8F"/>
  <polygon points="56,86 232,86 232,230 56,230" fill="#4338CA"/>

  <!-- Écran : article -->
  <rect x="74" y="102" width="140" height="112" rx="6" fill="#EEF2FF"/>
  <rect x="74" y="102" width="140" height="22" rx="6" fill="#F59E0B"/>
  <rect x="86" y="136" width="116" height="10" rx="3" fill="#A5B4FC"/>
  <rect x="86" y="154" width="100" height="10" rx="3" fill="#C7D2FE"/>
  <rect x="86" y="172" width="108" height="10" rx="3" fill="#C7D2FE"/>
  <rect x="86" y="190" width="70" height="10" rx="3" fill="#5EEAF7"/>

  <!-- Pile d'articles / journaux -->
  <g>
    <rect x="300" y="150" width="116" height="68" rx="8" fill="#A5B4FC"/>
    <path d="M386,150 H416 V180 Z" fill="#818CF8"/>
    <rect x="316" y="166" width="68" height="8" rx="3" fill="#FFFFFF" opacity="0.85"/>
    <rect x="316" y="182" width="84" height="8" rx="3" fill="#FFFFFF" opacity="0.6"/>
    <rect x="316" y="198" width="56" height="8" rx="3" fill="#FFFFFF" opacity="0.6"/>
  </g>
  <g>
    <rect x="288" y="128" width="116" height="68" rx="8" fill="#06B6D4"/>
    <path d="M374,128 H404 V158 Z" fill="#0E7490"/>
    <rect x="304" y="144" width="68" height="8" rx="3" fill="#FFFFFF" opacity="0.9"/>
    <rect x="304" y="160" width="84" height="8" rx="3" fill="#FFFFFF" opacity="0.7"/>
    <rect x="304" y="176" width="56" height="8" rx="3" fill="#FFFFFF" opacity="0.7"/>
  </g>

  <!-- Stylo -->
  <g transform="rotate(40 130 60)">
    <rect x="118" y="20" width="16" height="84" rx="6" fill="#10B981"/>
    <polygon points="118,104 134,104 126,124" fill="#FCD34D"/>
    <rect x="118" y="20" width="16" height="18" rx="6" fill="#34D399"/>
  </g>

  <!-- Étincelles -->
  <circle cx="430" cy="70" r="6" fill="#06B6D4" opacity="0.5"/>
  <circle cx="50" cy="190" r="5" fill="#F59E0B" opacity="0.55"/>
  <circle cx="250" cy="46" r="4" fill="#4338CA" opacity="0.5"/>
</svg>
